# xmcd CD database file
#
# Track frame offsets:
#	150
#	23840
#	40170
#	58870
#	74892
#	86935
#	104092
#
# Disc length: 1760 seconds
#
# Revision: 1
# Processed by: cddbd v1.5.1PL0 Copyright (c) Steve Scherf et al.
# Submitted via: CDex 1.51
#
DISCID=6a06de07
DTITLE=ロットングラフティー - Synchronicitizm
DYEAR=2003
DGENRE=JPop
TTITLE0=悪巧み〜Merry Christmas Mr.Lawrence
TTITLE1=毒学PO.P革新犯
TTITLE2=マニュアル06
TTITLE3=ASIAN MARKET POW
TTITLE4=夕映え雨アガレ
TTITLE5=Ktgi〜Monochrome Smell
TTITLE6=EELECTRIBEEE
EXTD=YEAR: 2003
EXTT0=
EXTT1=
EXTT2=
EXTT3=
EXTT4=
EXTT5=
EXTT6=
PLAYORDER=
